<?xml version="1.0" standalone="no"?>
<!DOCTYPE svg PUBLIC "-//W3C//DTD SVG 20010904//EN"
 "http://www.w3.org/TR/2001/REC-SVG-20010904/DTD/svg10.dtd">
<svg version="1.0" xmlns="http://www.w3.org/2000/svg"
 width="377.000000pt" height="377.000000pt" viewBox="0 0 377.000000 377.000000"
 preserveAspectRatio="xMidYMid meet">
<metadata>
Created by potrace 1.11, written by Peter Selinger 2001-2013
</metadata>
<g transform="translate(0.000000,377.000000) scale(0.100000,-0.100000)"
fill="#000000" stroke="none">
<path d="M2330 2520 c0 -12 4 -19 9 -16 5 4 19 -10 31 -29 20 -32 20 -36 5
-51 -19 -19 -121 -32 -207 -26 -70 4 -237 -15 -255 -30 -10 -8 -13 -7 -13 3
-1 10 -5 9 -14 -4 -10 -13 -16 -15 -21 -7 -6 9 -10 9 -16 -1 -4 -8 -13 -15
-19 -15 -5 -1 -14 -2 -20 -3 -5 0 -10 -5 -10 -10 0 -5 25 -8 55 -6 30 1 55 -1
55 -4 0 -4 18 -7 40 -9 63 -3 80 -6 80 -12 0 -4 10 -6 23 -5 22 2 57 -14 57
-26 0 -3 -31 -6 -70 -6 -39 0 -76 -6 -84 -12 -11 -9 -16 -9 -21 0 -6 8 -10 7
-16 -2 -7 -11 -9 -11 -9 -1 0 9 -5 10 -18 3 -11 -6 -24 -6 -32 -1 -9 5 -19 5
-27 -2 -8 -6 -13 -6 -13 -1 0 5 -6 10 -12 10 -50 3 -78 8 -78 16 0 4 -5 5 -10
2 -6 -4 -18 -1 -27 7 -12 9 -15 9 -9 1 4 -7 2 -13 -3 -13 -6 0 -11 5 -11 10 0
6 -9 10 -20 10 -11 0 -20 4 -20 8 0 4 -9 8 -19 8 -16 0 -18 -4 -10 -19 6 -10
17 -21 25 -24 7 -3 11 -9 8 -14 -3 -5 1 -9 8 -9 7 0 22 -13 32 -27 18 -24 18
-26 2 -20 -10 4 -27 7 -37 7 -12 0 -17 4 -13 11 5 8 1 8 -13 0 -11 -6 -23 -8
-26 -4 -13 13 -227 21 -246 9 -6 -4 -11 -2 -11 5 0 10 -3 10 -11 2 -9 -9 -8
-16 4 -27 9 -9 19 -16 23 -16 10 0 44 -41 44 -54 0 -7 -3 -7 -8 -1 -19 27
-164 19 -277 -15 -38 -12 -81 -24 -95 -27 -14 -3 -30 -10 -37 -15 -7 -5 -17
-7 -23 -3 -5 3 -10 1 -10 -5 0 -6 -5 -8 -10 -5 -6 3 -10 1 -10 -4 0 -6 -11
-11 -25 -11 -16 0 -25 -6 -25 -16 0 -8 4 -13 9 -9 5 3 12 1 16 -4 3 -5 13 -10
23 -9 9 0 35 -3 57 -7 22 -4 48 -7 58 -7 9 1 17 -3 17 -7 0 -4 10 -7 22 -8 13
0 34 -1 48 -2 24 -2 24 -2 5 -13 -24 -14 -215 -21 -248 -9 -13 5 -30 5 -37 1
-9 -5 -20 -5 -27 1 -7 6 -17 8 -23 4 -5 -3 -10 0 -10 7 0 9 -3 9 -10 -2 -5 -8
-10 -10 -10 -5 0 13 -63 13 -72 0 -5 -6 -8 -6 -8 1 0 6 -11 10 -25 9 -14 -2
-25 0 -25 4 0 4 -9 7 -20 7 -11 0 -20 -4 -20 -9 0 -5 -7 -4 -15 3 -12 10 -15
10 -15 -1 0 -9 -3 -10 -8 -4 -9 13 -42 15 -42 3 0 -6 -6 -6 -14 1 -11 9 -15 9
-19 -1 -4 -11 -6 -10 -6 0 -1 7 -6 10 -12 6 -7 -4 -37 -8 -68 -10 -31 -1 -57
-3 -58 -4 -2 -2 -12 -3 -23 -4 -11 0 -20 -5 -20 -11 0 -12 31 -13 48 -1 9 6
11 4 6 -7 -4 -11 0 -15 13 -13 10 2 24 -2 32 -8 12 -9 13 -8 7 2 -7 12 -4 12
15 1 13 -7 29 -13 34 -14 6 0 20 -6 31 -12 12 -7 24 -9 28 -6 3 3 6 1 6 -5 0
-7 3 -11 7 -10 5 1 18 -3 29 -10 12 -6 25 -8 29 -4 5 4 5 1 1 -5 -4 -7 -2 -13
4 -13 6 0 8 -4 5 -10 -3 -5 -17 -10 -31 -10 -13 0 -24 -5 -24 -12 0 -9 -3 -9
-11 -1 -6 6 -18 9 -25 6 -11 -4 -11 -7 -1 -16 19 -18 77 -49 77 -41 0 3 6 1
14 -5 7 -6 22 -8 31 -4 13 4 16 3 11 -5 -5 -8 -2 -10 9 -6 8 4 23 0 32 -7 9
-8 14 -9 10 -3 -5 9 8 11 43 10 28 -2 50 1 50 5 0 5 6 6 14 3 7 -3 33 4 58 15
42 20 98 25 98 9 0 -4 9 -8 20 -8 11 0 20 -5 20 -11 0 -5 4 -7 10 -4 5 3 23
-1 40 -10 16 -8 32 -15 35 -15 29 1 35 -1 29 -12 -4 -7 -3 -8 4 -4 7 4 26 1
44 -7 48 -22 96 -36 101 -31 2 3 7 -1 10 -9 4 -10 -7 -18 -33 -27 -22 -7 -38
-16 -36 -19 2 -3 -9 -6 -25 -7 -16 -1 -33 -4 -36 -8 -9 -9 18 -27 29 -20 4 3
8 0 8 -5 0 -6 3 -10 8 -10 4 1 9 0 12 -1 10 -4 75 -11 123 -13 26 -1 47 -4 47
-7 0 -7 182 -6 195 1 6 3 30 5 55 4 25 -1 50 1 55 4 6 3 33 6 60 6 28 0 55 4
61 7 6 4 27 6 47 4 21 -2 37 0 37 5 0 5 9 1 19 -8 15 -12 16 -19 8 -28 -7 -7
-15 -11 -19 -9 -4 2 -9 -5 -13 -16 -3 -11 -12 -19 -18 -17 -7 1 -11 -3 -10 -8
1 -6 -12 -20 -28 -30 -30 -21 -39 -52 -14 -52 8 0 12 4 9 8 -2 4 4 8 13 8 10
0 34 3 53 7 19 4 49 7 65 8 17 1 34 7 38 14 5 7 13 9 19 6 6 -4 50 -9 97 -11
121 -5 131 -6 131 -14 0 -5 9 -6 20 -4 11 2 20 -2 20 -8 0 -7 12 -14 28 -15
15 -1 29 -7 30 -12 2 -6 9 -10 16 -10 17 0 66 -24 66 -32 0 -4 -9 -10 -20 -13
-11 -3 -20 -10 -20 -15 0 -4 -9 -6 -20 -3 -12 3 -20 0 -20 -6 0 -7 -8 -11 -17
-10 -10 1 -27 1 -38 0 -16 -1 -17 -3 -5 -10 8 -5 20 -10 25 -11 6 -1 19 -7 30
-13 11 -6 24 -10 29 -9 4 2 13 -2 20 -7 7 -6 17 -6 26 -1 8 5 21 5 29 1 9 -4
39 -6 66 -4 68 3 75 5 75 15 0 5 5 6 10 3 6 -4 17 -1 25 5 8 7 15 9 15 4 0 -5
4 -2 10 6 6 10 32 15 94 16 47 1 86 -1 86 -5 0 -3 106 -6 235 -6 129 0 235 3
235 6 0 3 35 5 78 4 42 0 83 4 89 9 7 4 24 5 37 2 13 -3 26 -2 28 4 2 5 12 11
23 13 38 8 85 29 85 39 0 5 5 6 10 3 6 -3 13 1 16 9 3 9 13 16 21 16 8 0 11 5
8 10 -3 6 1 10 9 10 9 0 15 3 15 8 -3 20 2 32 14 30 6 -2 11 3 9 10 -1 6 3 12
10 12 6 0 9 3 6 6 -4 3 -2 20 3 37 15 50 20 70 23 92 1 11 4 25 7 30 8 14 -2
210 -11 210 -2 0 -11 56 -12 75 0 8 -4 20 -9 25 -4 6 -10 23 -13 39 -3 15 -19
54 -35 86 -17 32 -27 61 -23 65 4 5 1 5 -5 1 -8 -4 -13 -1 -13 8 0 9 -9 25
-20 36 -11 11 -20 22 -20 25 0 15 -117 135 -130 135 -6 0 -10 7 -10 16 0 8 -4
13 -9 10 -5 -4 -11 -3 -13 1 -4 10 -52 39 -95 59 -18 8 -33 18 -33 22 0 5 -7
9 -15 9 -20 0 -97 24 -112 36 -7 5 -20 7 -28 3 -8 -3 -15 0 -15 6 0 7 -4 7
-14 -1 -9 -8 -16 -8 -20 -2 -4 6 -13 8 -21 4 -9 -3 -21 0 -29 6 -7 6 -15 8
-19 5 -11 -11 -57 -11 -57 0 0 8 -2 8 -8 -1 -4 -6 -23 -11 -42 -12 -33 0 -48
-3 -102 -17 -13 -3 -30 -7 -38 -8 -9 -1 -21 -5 -27 -9 -6 -4 -14 -3 -17 2 -7
10 -25 9 -43 -2 -7 -5 -13 -4 -13 1 0 5 -11 12 -25 14 -14 3 -25 1 -25 -5 0
-5 -6 -5 -13 2 -8 6 -17 8 -20 4 -4 -3 -13 0 -22 7 -11 9 -15 9 -15 1 0 -7 -5
-9 -12 -4 -14 8 -26 11 -73 18 -105 16 -116 18 -132 28 -9 6 -13 1 -13 -13z"/>
<path d="M48 1882 c-34 -4 -37 -22 -5 -23 12 -1 25 -1 30 0 4 0 7 -3 7 -9 0
-5 3 -9 8 -9 4 1 9 0 12 -1 14 -6 220 -4 220 2 0 4 7 4 17 1 12 -5 14 -3 8 8
-7 12 -6 12 7 1 12 -10 18 -10 27 2 9 11 5 15 -26 21 -39 8 -257 12 -305 7z"/>
<path d="M971 1676 c-12 -5 -21 -13 -21 -18 0 -5 -4 -6 -10 -3 -5 3 -22 -1
-37 -9 l-28 -15 23 -8 c20 -8 60 -8 120 -1 6 1 12 6 12 11 0 6 3 8 6 4 9 -9
36 21 32 35 -5 14 -68 17 -97 4z"/>
<path d="M1660 1486 c0 -4 -11 -6 -25 -4 -14 3 -25 1 -25 -4 0 -5 -9 -6 -20
-3 -12 4 -20 2 -20 -6 0 -9 -3 -9 -14 0 -11 9 -17 8 -28 -2 -7 -8 -21 -13 -31
-11 -10 1 -14 -2 -10 -9 4 -6 0 -8 -10 -4 -10 3 -17 2 -17 -3 0 -6 -3 -9 -7
-9 -5 1 -11 0 -15 -1 -5 -1 -16 -3 -25 -5 -26 -3 -53 -16 -53 -26 0 -4 7 -6
15 -3 8 4 15 2 15 -3 0 -5 33 -8 73 -6 109 5 117 6 117 16 0 4 4 6 9 2 15 -9
115 33 130 54 8 11 20 17 28 14 8 -3 11 0 8 8 -6 15 -95 20 -95 5z"/>
</g>
</svg>
